<?xml version="1.0" encoding="UTF-8" standalone="no"?>
<!DOCTYPE svg PUBLIC "-//W3C//DTD SVG 1.1//EN" "http://www.w3.org/Graphics/SVG/1.1/DTD/svg11.dtd">
<svg width="100%" height="100%" viewBox="0 0 1280 800" version="1.1" xmlns="http://www.w3.org/2000/svg" xmlns:xlink="http://www.w3.org/1999/xlink" xml:space="preserve" xmlns:serif="http://www.serif.com/" style="fill-rule:evenodd;clip-rule:evenodd;stroke-linecap:round;stroke-linejoin:round;stroke-miterlimit:1.5;">
    <rect id="Artboard1" x="0" y="0" width="1280" height="800" style="fill:none;"/>
    <clipPath id="_clip1">
        <rect id="Artboard11" serif:id="Artboard1" x="0" y="0" width="1280" height="800"/>
    </clipPath>
    <g clip-path="url(#_clip1)">
        <g transform="matrix(1.84876,0,0,2.16288,-203.548,-303.277)">
            <path d="M113.442,145.7L220.049,145.7L269.394,415.332L609.217,410.968" style="fill:none;stroke:black;stroke-width:6.46px;"/>
            <path d="M235.386,193.737L600.351,188.378L583.764,300.101L265.528,351.842" style="fill:none;stroke:black;stroke-width:5.96px;"/>
            <g transform="matrix(1,0,0,1,0,-30.3038)">
                <circle cx="295.348" cy="503.873" r="32.518" style="fill:rgb(235,235,235);stroke:black;stroke-width:5.96px;"/>
            </g>
            <g transform="matrix(1,0,0,1,275.906,-30.3038)">
                <circle cx="295.348" cy="503.873" r="32.518" style="fill:rgb(235,235,235);stroke:black;stroke-width:5.96px;"/>
            </g>
            <g transform="matrix(1,0,0,1,-0.590333,-0.0926013)">
                <path d="M261.164,191.179L289.859,341.864" style="fill:none;stroke:black;stroke-width:5.96px;"/>
            </g>
            <g transform="matrix(1,0,0,1,32.1674,1.82888)">
                <path d="M261.164,191.179L289.859,341.864" style="fill:none;stroke:black;stroke-width:5.96px;"/>
            </g>
            <g transform="matrix(1,0,0,1,64.9251,3.75035)">
                <path d="M261.164,191.179L289.859,341.864" style="fill:none;stroke:black;stroke-width:5.96px;"/>
            </g>
            <g transform="matrix(1,0,0,1,97.6828,2.59284)">
                <path d="M261.164,191.179L289.859,341.864" style="fill:none;stroke:black;stroke-width:5.96px;"/>
            </g>
            <g transform="matrix(1,0,0,1,130.441,-1.25012)">
                <path d="M261.164,191.179L289.859,341.864" style="fill:none;stroke:black;stroke-width:5.96px;"/>
            </g>
            <g transform="matrix(1,0,0,1,162.226,0.590333)">
                <path d="M261.164,191.179L289.859,341.864" style="fill:none;stroke:black;stroke-width:5.96px;"/>
            </g>
            <g transform="matrix(1,0,0,1,195.956,4.61849)">
                <path d="M261.164,191.179L289.859,341.864" style="fill:none;stroke:black;stroke-width:5.96px;"/>
            </g>
            <g transform="matrix(1,0,0,1,224.662,-3.11372)">
                <path d="M261.164,191.179L289.859,341.864" style="fill:none;stroke:black;stroke-width:5.96px;"/>
            </g>
            <g transform="matrix(1,0,0,1,255.383,-3.66933)">
                <path d="M261.164,191.179L289.859,341.864" style="fill:none;stroke:black;stroke-width:5.96px;"/>
            </g>
            <g transform="matrix(1,0,0,1,285.004,-7.18818)">
                <path d="M261.164,191.179L289.859,341.864" style="fill:none;stroke:black;stroke-width:5.96px;"/>
            </g>
            <g transform="matrix(1,0,0,1,312.321,-5.33615)">
                <path d="M261.164,191.179L289.859,341.864" style="fill:none;stroke:black;stroke-width:5.96px;"/>
            </g>
            <path d="M231.254,226.622C227.793,223.092 597.816,212.211 597.816,212.211" style="fill:none;stroke:black;stroke-width:5.96px;"/>
            <path d="M231.254,226.622C227.793,223.092 597.816,212.211 597.816,212.211" style="fill:none;stroke:black;stroke-width:5.96px;"/>
            <g transform="matrix(1,0,0,1,2.88222,28.9842)">
                <path d="M231.254,226.622C227.793,223.092 597.816,212.211 597.816,212.211" style="fill:none;stroke:black;stroke-width:5.96px;"/>
            </g>
            <g transform="matrix(1,0,0,1,5.76443,57.9684)">
                <path d="M231.254,226.622C227.793,223.092 597.816,212.211 597.816,212.211" style="fill:none;stroke:black;stroke-width:5.96px;"/>
            </g>
            <g transform="matrix(1,0,0,1,8.64665,86.9526)">
                <path d="M231.254,226.622C227.793,223.092 597.816,212.211 597.816,212.211" style="fill:none;stroke:black;stroke-width:5.96px;"/>
            </g>
            <g transform="matrix(1,0,0,1,11.5289,115.937)">
                <path d="M231.254,226.622C227.793,223.092 597.816,212.211 597.816,212.211" style="fill:none;stroke:black;stroke-width:5.96px;"/>
            </g>
            <path d="M483.499,180.044C483.434,180.049 482.786,180.1 482.54,180.1C482.308,180.1 481.992,180.109 481.753,180.157C480.465,180.177 480.38,181.16 480.372,181.225C480.335,181.542 480.394,181.962 480.93,182.299C481.006,182.348 481.172,182.45 481.456,182.504C481.53,182.518 481.826,182.548 482.03,182.539C482.184,182.532 482.323,182.506 482.445,182.47L482.54,182.471C483.146,182.471 484.18,182.397 484.743,182.162L485.493,182.113L485.429,182.091C485.758,182.192 486.308,182.207 486.568,182.209C487.379,182.39 488.251,182.399 489.123,182.399C489.888,182.399 490.51,181.867 490.51,181.213C490.51,180.558 489.888,180.027 489.123,180.027C488.469,180.027 487.812,180.052 487.209,179.9C487.006,179.849 486.587,179.857 486.353,179.866C486.06,179.785 485.68,179.731 485.272,179.734C484.596,179.739 483.854,179.891 483.499,180.044ZM482.287,182.45C482.133,182.501 481.967,182.528 481.794,182.528C482.02,182.528 482.179,182.49 482.287,182.45ZM481.031,180.514C481.008,180.534 480.99,180.552 480.975,180.567L481.031,180.514ZM481.092,180.463L481.074,180.478L481.097,180.459L481.092,180.463ZM481.133,180.432L481.123,180.44L481.144,180.424L481.133,180.432Z" style="fill:white;"/>
            <path d="M486.058,182.886C485.875,182.922 485.725,182.983 485.619,183.063C485.54,183.061 485.293,183.057 485.22,183.057L485.032,183.057C484.894,183.033 484.65,183 484.562,183L483.945,183C483.568,182.978 483.181,182.946 482.769,182.946C482.685,182.946 482.358,182.907 482.196,182.924C482.076,182.937 481.99,182.979 481.939,183.02L481.414,183.197C481.329,183.211 481.252,183.228 481.233,183.235C481.055,183.311 481.049,183.44 481.052,183.496C481.054,183.531 481.078,183.76 481.39,183.76C481.429,183.76 481.505,183.747 481.599,183.724C481.614,183.723 481.627,183.722 481.636,183.722C481.683,183.722 481.876,183.723 482.019,183.708C482.13,183.697 482.221,183.671 482.271,183.645C482.411,183.575 482.603,183.557 482.803,183.548C483.054,183.538 483.318,183.55 483.543,183.55L483.945,183.55C484.154,183.562 484.36,183.572 484.565,183.572C484.598,183.572 484.629,183.568 484.659,183.56C484.721,183.587 484.811,183.604 484.935,183.606L484.944,183.606L485.22,183.606C485.319,183.606 485.546,183.627 485.704,183.611C485.866,183.594 485.984,183.535 486.047,183.471C486.068,183.45 486.105,183.443 486.145,183.433C486.223,183.413 486.314,183.401 486.412,183.395C486.537,183.407 486.747,183.398 486.795,183.395C486.856,183.416 486.934,183.43 487.025,183.428C487.086,183.426 487.198,183.416 487.26,183.41C487.364,183.474 487.508,183.523 487.681,183.548C488.04,183.6 488.552,183.566 488.803,183.566C488.943,183.566 489.157,183.596 489.349,183.597C489.516,183.599 489.67,183.578 489.787,183.534C489.836,183.528 489.959,183.511 490.012,183.5C490.086,183.483 490.137,183.457 490.162,183.441C490.259,183.377 490.286,183.3 490.29,183.237C490.295,183.172 490.278,183.103 490.213,183.038C490.139,182.963 490.027,182.908 489.887,182.882C489.718,182.851 489.486,182.866 489.327,182.866L487.577,182.866C487.517,182.866 487.444,182.864 487.363,182.86L487.344,182.859C487.334,182.858 487.323,182.858 487.313,182.857L487.288,182.857C487.077,182.848 486.819,182.835 486.573,182.839C486.514,182.784 486.429,182.75 486.335,182.75C486.217,182.75 486.113,182.804 486.058,182.886Z" style="fill:white;"/>
            <path d="M488.796,183.588C489.15,183.685 489.684,183.631 490.038,183.631C490.216,183.631 490.36,183.508 490.36,183.356C490.36,183.204 490.216,183.081 490.038,183.081C489.735,183.081 489.272,183.154 488.982,183.062C488.958,183.055 488.634,183.027 488.592,183.023C488.578,183.021 488.564,183.021 488.549,183.021C488.372,183.021 488.228,183.144 488.228,183.295C488.228,183.304 488.247,183.547 488.528,183.57C488.563,183.572 488.743,183.585 488.796,183.588Z" style="fill:white;"/>
            <path d="M487.854,182.329C487.432,182.329 487.018,182.353 486.6,182.42C486.423,182.448 486.237,182.497 486.068,182.563C486.057,182.567 485.953,182.61 485.875,182.659C485.812,182.698 485.764,182.743 485.737,182.78C485.639,182.912 485.662,183.035 485.763,183.136C485.814,183.187 485.893,183.232 486.002,183.25C486.097,183.265 486.335,183.247 486.369,183.244C486.804,183.292 487.263,183.253 487.7,183.253C487.865,183.253 488.002,183.146 488.019,183.009C488.062,183 488.104,182.99 488.146,182.979C488.16,182.975 488.265,182.939 488.341,182.895C488.406,182.856 488.454,182.808 488.479,182.767C488.555,182.649 488.544,182.535 488.44,182.431C488.393,182.384 488.316,182.338 488.205,182.321C488.111,182.307 487.875,182.327 487.854,182.329Z" style="fill:white;"/>
            <path d="M487.192,183.106C487.355,183.093 487.482,182.975 487.482,182.833C487.482,182.681 487.338,182.558 487.161,182.558C487.11,182.558 487.056,182.566 487.002,182.581C486.969,182.59 486.908,182.611 486.894,182.616C486.748,182.634 486.597,182.552 486.464,182.502C486.431,182.489 486.261,182.431 486.184,182.405C486.129,182.365 486.057,182.342 485.98,182.342C485.814,182.342 485.744,182.419 485.713,182.454C485.649,182.528 485.625,182.616 485.671,182.718C485.684,182.748 485.717,182.811 485.814,182.861C485.875,182.894 486.151,182.984 486.205,183.005C486.449,183.096 486.742,183.195 487.009,183.157C487.062,183.149 487.164,183.115 487.192,183.106ZM486.113,182.866C486.077,182.88 486.038,182.889 485.998,182.891C486.046,182.889 486.083,182.879 486.113,182.866Z" style="fill:white;"/>
            <path d="M487.005,183.071C486.984,183.07 486.964,183.069 486.949,183.069L486.076,183.069C485.899,183.069 485.755,183.193 485.755,183.344C485.755,183.496 485.899,183.619 486.076,183.619L486.949,183.619C487.027,183.619 487.115,183.625 487.19,183.616C487.257,183.621 487.352,183.62 487.352,183.62C487.352,183.62 487.339,183.621 487.335,183.621L487.818,183.621C488.281,183.621 488.726,183.609 489.192,183.609C489.37,183.609 489.514,183.486 489.514,183.334C489.514,183.183 489.37,183.06 489.192,183.06C488.726,183.06 488.281,183.072 487.818,183.072L487.468,183.072C487.412,183.019 487.341,183 487.279,182.993C487.232,182.988 487.105,182.975 487.005,183.071Z" style="fill:white;"/>
            <path d="M490.996,183.21C490.86,183.23 490.689,183.225 490.53,183.239C490.39,183.252 490.257,183.279 490.146,183.328C490.103,183.324 489.954,183.313 489.904,183.313C489.634,183.313 489.363,183.324 489.09,183.324L488.511,183.324L488.504,183.324C488.467,183.324 488.434,183.326 488.404,183.33C488.3,183.335 488.149,183.343 488.064,183.355C488.009,183.362 487.966,183.374 487.937,183.385C487.91,183.384 487.74,183.375 487.678,183.375L487.047,183.375C487.007,183.347 486.947,183.321 486.866,183.312C486.767,183.302 486.567,183.324 486.516,183.324L485.391,183.324C484.083,183.324 482.717,183.417 481.329,183.417C481.18,183.417 481.059,183.52 481.059,183.648C481.059,183.775 481.18,183.879 481.329,183.879C482.717,183.879 484.083,183.787 485.391,183.787L486.516,183.787C486.532,183.787 486.577,183.784 486.628,183.781C486.654,183.802 486.707,183.837 486.807,183.837L487.678,183.837C487.751,183.837 487.871,183.853 487.967,183.848C488.033,183.844 488.093,183.832 488.144,183.813L488.35,183.799C488.4,183.796 488.451,183.792 488.501,183.789L488.54,183.786L489.09,183.786C489.363,183.786 489.634,183.775 489.904,183.775C489.963,183.775 490.076,183.793 490.163,183.791C490.254,183.789 490.331,183.77 490.384,183.743C490.46,183.704 490.563,183.699 490.665,183.693C490.823,183.684 490.985,183.683 491.115,183.661C491.168,183.652 491.227,183.631 491.286,183.601C491.312,183.588 491.355,183.564 491.374,183.554C491.497,183.532 491.589,183.439 491.589,183.328C491.589,183.2 491.468,183.097 491.319,183.097C491.262,183.097 491.191,183.112 491.119,183.146C491.084,183.162 491.014,183.2 490.996,183.21Z" style="fill:white;"/>
            <path d="M392.107,183.819C392.022,183.823 391.93,183.835 391.843,183.835C391.424,183.835 390.983,183.858 390.589,184.016C390.545,184.034 390.366,184.105 390.268,184.196C390.25,184.212 390.234,184.23 390.221,184.247C390.17,184.246 390.123,184.241 390.085,184.228C390.004,184.203 389.901,184.159 389.798,184.137C389.682,184.113 389.565,184.113 389.458,184.146C389.386,184.169 389.317,184.212 389.256,184.269C389.229,184.294 389.183,184.341 389.159,184.365C388.888,184.379 388.838,184.487 388.884,184.595C388.86,184.652 388.862,184.708 388.908,184.751C388.674,184.759 388.399,184.783 388.172,184.746C388.092,184.734 388.018,184.715 387.967,184.669C387.919,184.625 387.9,184.557 387.9,184.464C387.9,184.336 387.779,184.233 387.63,184.233C387.48,184.233 387.359,184.336 387.359,184.464C387.359,184.682 387.43,184.837 387.537,184.95C387.471,184.992 387.428,185.06 387.428,185.136C387.428,185.263 387.549,185.367 387.698,185.367C388.275,185.367 388.848,185.302 389.42,185.21C390.825,185.201 392.215,185.145 393.63,185.145L394.989,185.145C395.049,185.145 395.361,185.175 395.441,185.163C395.536,185.15 395.589,185.109 395.617,185.082C395.699,185.001 395.727,184.923 395.732,184.857C395.738,184.776 395.711,184.701 395.656,184.638C395.674,184.551 395.668,184.429 395.647,184.366C395.631,184.314 395.603,184.278 395.58,184.254C395.537,184.211 395.465,184.17 395.364,184.152C395.232,184.13 394.984,184.158 394.906,184.158C394.426,184.158 393.945,184.176 393.469,184.176C393.134,184.176 392.802,184.198 392.472,184.233C392.599,184.173 392.602,184.063 392.602,184.03C392.601,184.012 392.588,183.801 392.32,183.801C392.25,183.801 392.179,183.808 392.107,183.819Z" style="fill:white;"/>
            <path d="M513.814,181.742C513.729,181.735 513.641,181.763 513.582,181.823C513.489,181.917 513.508,182 513.522,182.045C513.546,182.119 513.612,182.213 513.782,182.218C513.808,182.219 513.85,182.216 513.901,182.205C513.969,182.189 514.087,182.149 514.115,182.143C514.283,182.106 514.45,182.047 514.619,182.014C515.025,181.935 515.414,181.935 515.823,181.966C515.383,182.101 514.945,182.247 514.509,182.311C513.994,182.387 513.433,182.319 512.913,182.355C512.538,182.381 512.133,182.48 511.776,182.59C511.723,182.606 511.602,182.637 511.518,182.681C511.436,182.725 511.379,182.783 511.351,182.841C511.306,182.931 511.311,183.079 511.503,183.189C511.705,183.306 512.298,183.441 512.406,183.441C513.346,183.441 514.196,183.325 515.133,183.325C515.424,183.325 515.698,183.29 515.984,183.29C516.06,183.29 516.167,183.305 516.266,183.308C516.376,183.311 516.479,183.3 516.558,183.273C517.043,183.109 517.91,183.06 518.45,183.196C518.642,183.244 518.853,183.231 519.064,183.216C519.198,183.207 519.333,183.192 519.452,183.233C519.594,183.282 519.779,183.297 519.975,183.291C520.203,183.284 520.449,183.25 520.626,183.25C520.732,183.25 520.905,183.262 520.981,183.249C521.11,183.225 521.174,183.157 521.203,183.1C521.275,182.956 521.226,182.869 521.186,182.819C521.15,182.773 521.099,182.739 521.031,182.719C521.012,182.714 520.979,182.711 520.945,182.71C520.917,182.667 520.889,182.619 520.859,182.589C520.806,182.536 520.726,182.492 520.624,182.465C520.491,182.429 520.306,182.422 520.182,182.422C519.741,182.422 519.306,182.434 518.863,182.434C518.183,182.434 517.527,182.344 516.838,182.344C516.712,182.344 516.529,182.315 516.362,182.309C516.347,182.308 516.332,182.308 516.317,182.308C516.696,182.199 517.074,182.112 517.451,182.111C517.914,182.147 518.377,182.173 518.844,182.183C519.217,182.191 519.59,182.183 519.963,182.183C520.04,182.183 520.164,182.186 520.264,182.161C520.345,182.14 520.414,182.105 520.467,182.057C520.543,181.987 520.546,181.921 520.543,181.881C520.539,181.802 520.498,181.735 520.405,181.689C520.379,181.677 520.344,181.664 520.297,181.659C520.273,181.657 520.183,181.666 520.157,181.668L519.322,181.668C518.708,181.668 518.09,181.649 517.474,181.649C517.02,181.614 516.567,181.57 516.113,181.526C515.556,181.472 515.04,181.457 514.498,181.564C514.324,181.598 514.153,181.657 513.98,181.695C513.961,181.699 513.873,181.725 513.814,181.742ZM516.555,182.787C516.509,182.782 516.462,182.778 516.416,182.775C516.324,182.769 516.233,182.757 516.172,182.783C516.132,182.799 516.092,182.815 516.051,182.83C516.11,182.833 516.177,182.84 516.243,182.844C516.286,182.846 516.328,182.854 516.359,182.844C516.419,182.823 516.485,182.804 516.555,182.787ZM514.011,182.104L514.004,182.112L514.011,182.104ZM514.018,182.095L514.012,182.102L514.018,182.095ZM514.022,182.089L514.02,182.092L514.022,182.089Z" style="fill:white;"/>
            <path d="M516.556,182.972C516.515,183.013 516.49,183.065 516.49,183.123C516.49,183.251 516.612,183.354 516.761,183.354C516.926,183.354 517.109,183.327 517.28,183.288C517.403,183.316 517.546,183.327 517.696,183.326C517.929,183.325 518.181,183.297 518.369,183.297C518.432,183.297 518.526,183.31 518.614,183.313C518.715,183.316 518.811,183.305 518.882,183.281C519.016,183.236 519.175,183.205 519.32,183.205C519.341,183.205 519.414,183.203 519.47,183.19C519.537,183.174 519.59,183.144 519.625,183.113C519.674,183.069 519.701,183.016 519.705,182.956C519.709,182.906 519.7,182.839 519.627,182.766C519.6,182.739 519.559,182.71 519.497,182.692C519.452,182.68 519.286,182.684 519.244,182.685C519.037,182.685 518.808,182.669 518.614,182.718C518.501,182.746 518.38,182.742 518.26,182.74C518.087,182.738 517.915,182.74 517.753,182.78L517.621,182.766C517.523,182.756 517.427,182.759 517.341,182.787C517.323,182.792 517.304,182.798 517.285,182.804C517.203,182.783 517.117,182.766 517.045,182.732C517.023,182.716 516.94,182.659 516.917,182.649C516.865,182.626 516.82,182.622 516.788,182.622C516.639,182.622 516.518,182.725 516.518,182.853C516.518,182.896 516.532,182.937 516.556,182.972Z" style="fill:white;"/>
            <path d="M541.671,178.447C541.57,178.443 541.263,178.432 541.129,178.457C540.861,178.505 540.673,178.623 540.551,178.743C540.481,178.812 540.346,178.983 540.295,179.253C540.258,179.444 540.224,179.94 540.218,180.024C540.151,180.291 539.902,180.668 539.738,180.859C539.675,180.912 539.621,180.972 539.578,181.037C539.294,181.394 539.443,181.69 539.517,181.827C539.621,182.02 539.805,182.196 540.135,182.273C540.217,182.292 540.326,182.308 540.459,182.301C540.516,182.298 540.725,182.253 540.826,182.231L541.517,182.231C542.292,182.231 543.04,182.186 543.824,182.186C545.223,182.186 546.626,182.215 548.04,182.215C548.419,182.215 548.801,182.284 549.164,182.287C549.21,182.29 549.512,182.31 549.642,182.297C549.825,182.278 549.974,182.227 550.087,182.169C550.181,182.12 550.292,182.1 550.408,182.089C550.739,182.136 551.1,182.131 551.442,182.131C551.547,182.131 552.219,182.061 552.327,182.026C552.725,181.897 552.846,181.651 552.895,181.531C553.006,181.261 552.979,180.989 552.72,180.731C552.624,180.635 552.485,180.537 552.282,180.477C552.213,180.456 552.058,180.447 551.897,180.444C551.72,180.314 551.273,180.042 551.26,180.035C550.92,179.847 550.576,179.661 550.233,179.477C549.181,178.91 548.263,178.339 547.083,178.106C545.536,177.799 544.095,178.189 542.574,178.368C542.271,178.403 541.975,178.446 541.671,178.447ZM546.371,179.644C545.164,179.486 544.03,179.839 542.832,179.979L542.661,179.999C543.361,179.977 544.07,180.001 544.761,180.001C545.161,180.001 545.563,179.995 545.966,179.991C546.056,179.843 546.198,179.721 546.371,179.644Z" style="fill:white;"/>
            <path d="M567.868,181.624C567.957,181.782 568.12,181.932 568.403,182.035C568.56,182.093 568.902,182.151 569.319,182.165C569.946,182.186 570.821,182.152 570.97,182.152C572.93,182.152 575.363,182.435 577.194,181.813C577.315,181.772 578.032,181.629 578.522,181.501C578.878,181.408 579.153,181.3 579.258,181.236C579.604,181.027 579.672,180.764 579.685,180.599C579.701,180.39 579.637,180.189 579.455,180.007C579.326,179.878 579.094,179.729 578.738,179.697C578.445,179.67 577.87,179.762 577.758,179.791C577.595,179.832 577.4,179.818 577.203,179.808C576.87,179.79 576.533,179.757 576.245,179.757C574.393,179.757 572.242,179.504 570.412,179.811C569.798,179.914 569.109,180.19 568.482,180.19C567.957,180.19 567.531,180.555 567.531,181.003C567.531,181.252 567.662,181.475 567.868,181.624Z" style="fill:white;"/>
            <path d="M577.791,180.562C577.336,180.623 576.988,180.96 576.988,181.366C576.988,181.815 577.414,182.179 577.94,182.179C578.79,182.179 579.671,181.753 579.671,180.741C579.671,180.292 579.244,179.928 578.719,179.928C578.266,179.928 577.886,180.199 577.791,180.562Z" style="fill:white;"/>
            <path d="M603.635,212.06C603.581,212.163 603.551,212.276 603.551,212.396C603.551,212.993 603.401,213.516 603.259,214.023C603.083,214.651 602.915,215.26 602.915,215.917C602.915,216.317 603.147,216.506 603.297,216.606C603.543,216.769 603.852,216.845 604.225,216.732C604.354,216.692 604.601,216.573 604.801,216.329C605.008,216.077 605.196,215.638 605.196,215.402C605.196,215.094 605.386,214.501 605.386,213.999C605.386,212.453 605.717,211.46 605.717,209.929C605.717,209.48 605.291,209.115 604.766,209.115C604.241,209.115 603.814,209.48 603.814,209.929C603.814,210.735 603.722,211.393 603.635,212.06Z" style="fill:white;"/>
            <path d="M599.641,238.057L599.641,238.558C599.641,238.901 599.567,239.238 599.567,239.595C599.567,239.896 599.399,240.269 599.309,240.551C599.241,240.763 599.229,240.995 599.247,241.234C599.258,241.388 599.303,241.546 599.273,241.689C599.218,241.953 599.145,242.216 599.145,242.481C599.145,242.607 599.099,242.738 599.077,242.866C599.042,243.066 599.035,243.262 599.073,243.448C599.082,243.489 599.108,243.591 599.128,243.665C599.004,243.87 598.822,244.119 598.702,244.357C598.625,244.509 598.582,244.681 598.568,244.865C598.559,244.978 598.552,245.198 598.551,245.238C598.415,245.555 598.439,246.156 598.439,246.524L598.439,247.047L598.44,247.053C598.443,247.725 598.678,248.01 598.982,248.067L598.983,248.068C599.289,248.379 599.699,248.533 600.252,248.393C600.454,248.342 600.677,248.226 600.866,248.037C601.041,247.862 601.201,247.592 601.283,247.441C601.549,246.952 601.839,246.472 602.086,245.973C602.146,245.851 602.208,245.729 602.27,245.608C602.29,245.741 602.313,245.873 602.327,246.007C602.377,246.467 602.428,246.933 602.468,247.394C602.512,247.893 602.981,248.099 603.075,248.131C603.345,248.224 603.61,248.212 603.866,248.099C603.949,248.063 604.388,247.912 604.388,247.342L604.387,246.877C604.371,246.584 604.349,246.291 604.318,245.999L604.285,245.698C604.32,245.735 604.355,245.766 604.387,245.792C604.631,245.984 604.905,246.039 605.174,246.013C605.373,245.994 605.613,245.929 605.83,245.709C606.054,245.483 606.051,244.784 606.051,244.784C606.051,244.784 606.055,244.825 606.055,244.845C606.06,244.562 606.036,244.312 605.995,244.059C606.121,244.113 606.264,244.143 606.415,244.143C606.94,244.143 607.366,243.778 607.366,243.329C607.366,242.777 607.071,242.192 606.913,241.664C606.816,241.339 606.833,241.009 606.773,240.692C606.607,239.826 606.259,238.978 605.913,238.171C605.707,237.693 605.473,237.27 605.133,236.878C605.143,236.889 605.203,236.971 605.203,236.971C605.203,236.971 604.907,236.579 604.784,236.499C604.641,236.407 604.498,236.363 604.376,236.343C604.177,236.31 603.991,236.32 603.822,236.381C603.709,236.183 603.542,236.098 603.461,236.057C603.246,235.948 603.027,235.922 602.81,235.955C602.763,235.962 602.13,236.048 602.033,236.632L602.026,236.646C602.141,236.145 602.215,235.612 602.215,235.256C602.215,234.807 601.788,234.443 601.263,234.443C600.738,234.443 600.312,234.807 600.312,235.256C600.312,235.723 600.156,236.608 599.943,237.028C599.912,237.09 599.886,237.155 599.865,237.222C599.73,237.381 599.643,237.646 599.642,238.051L599.641,238.057ZM600.805,244.422C600.696,244.591 600.566,244.78 600.468,244.965L600.465,245.077C600.576,244.857 600.69,244.639 600.805,244.422ZM601.814,237.381C601.778,237.481 601.74,237.572 601.7,237.652C601.697,237.675 601.685,237.788 601.68,237.849C601.667,238.014 601.644,238.175 601.593,238.322L601.556,238.425L601.554,238.446L601.544,238.519L601.544,238.558C601.544,238.901 601.47,239.238 601.47,239.595C601.47,240.029 601.274,240.573 601.145,240.979C601.109,241.089 601.154,241.215 601.165,241.34C601.185,241.557 601.188,241.773 601.147,241.973C601.111,242.143 601.048,242.31 601.048,242.481C601.048,242.637 601.021,242.798 600.988,242.958C600.973,243.031 600.934,243.1 600.947,243.166C600.969,243.272 601.036,243.473 601.049,243.641C601.061,243.791 601.043,243.931 601.003,244.051C601.184,243.714 601.367,243.377 601.549,243.039C601.642,242.867 601.745,242.673 601.799,242.484C601.815,242.425 601.85,242.361 601.86,242.302C601.867,242.261 601.875,242.155 601.877,242.141C601.894,242.046 601.923,241.964 601.961,241.894C601.894,241.017 601.855,240.139 601.855,239.267C601.855,238.719 601.758,237.991 601.814,237.381Z" style="fill:white;"/>
            <path d="M601.544,262.258C601.117,262.456 600.668,262.798 600.551,262.914C600.332,263.131 600.132,263.379 599.948,263.647C599.83,263.637 599.689,263.645 599.538,263.683C599.497,263.623 599.448,263.569 599.394,263.521C599.255,263.397 599.066,263.297 598.805,263.272C598.691,263.261 598.466,263.261 598.209,263.37C598.146,263.397 598.07,263.438 597.993,263.485C597.727,263.391 597.458,263.422 597.201,263.512C597.008,263.581 596.782,263.728 596.606,263.957C596.483,264.117 596.337,264.409 596.293,264.5C596.222,264.602 596.169,264.726 596.146,264.873C596.125,265.01 596.167,265.356 596.186,265.501C595.812,266.405 595.759,268.046 595.645,268.955C595.586,269.418 595.529,269.881 595.461,270.343C595.283,271.545 595.008,273.709 595.076,275.375C595.109,276.181 595.231,276.882 595.447,277.351C595.557,277.589 595.538,277.965 595.512,278.364C595.46,279.174 595.293,280.062 595.277,280.526C595.206,282.626 595.088,284.693 594.898,286.786C594.858,287.218 594.782,287.933 594.729,288.378C594.675,288.84 594.629,289.301 594.579,289.76C594.493,290.561 594.276,291.41 594.194,292.231C594.098,293.192 594.187,294.118 594.696,294.933C594.722,295.023 594.822,295.373 594.841,295.436C595.032,296.051 595.716,296.056 595.767,296.056C596.292,296.056 596.718,295.692 596.718,295.243C596.718,295.157 596.702,295.074 596.673,294.996C596.636,294.875 596.458,294.294 596.396,294.201C596.036,293.653 596.025,293.02 596.09,292.369C596.172,291.552 596.388,290.707 596.474,289.909C596.523,289.455 596.568,288.999 596.622,288.541C596.676,288.086 596.754,287.354 596.795,286.912C596.901,285.744 596.985,284.585 597.05,283.424C597.25,283.735 597.624,283.797 597.72,283.812C597.954,283.847 598.384,283.858 598.697,283.445C598.733,283.397 598.801,283.289 598.855,283.13C598.936,282.897 599.054,282.405 599.086,282.184C599.167,281.636 599.296,281.1 599.365,280.548C599.451,279.868 599.535,279.186 599.625,278.506C600.118,276.943 600.748,275.406 601.241,273.877L601.383,273.435C601.457,273.929 601.547,274.424 601.653,274.921C601.754,275.394 601.911,276.206 602.209,276.808C602.308,277.092 602.433,277.31 602.558,277.436C602.661,277.538 602.771,277.606 602.88,277.651C602.898,277.665 602.916,277.677 602.934,277.69C603.231,277.893 603.531,277.941 603.814,277.914C604.112,277.886 604.437,277.75 604.704,277.462C605.078,277.058 605.384,276.13 605.436,275.985C605.835,274.889 606.19,273.776 606.549,272.663C606.599,272.645 606.647,272.624 606.695,272.6L606.693,272.622C606.416,273.861 606.145,275.107 606.145,276.234C606.145,277.02 606.949,277.093 607.025,277.098C607.188,277.11 607.79,277.121 608.013,276.529C608.043,276.448 608.135,275.853 608.192,275.628C608.358,274.966 608.422,274.283 608.498,273.607C608.531,273.305 608.563,273.003 608.595,272.7C608.805,271.778 609.017,270.86 609.114,270C609.148,269.691 609.373,268.317 609.298,267.612C609.288,267.516 609.271,267.426 609.249,267.344C609.305,267.015 609.366,266.687 609.433,266.361C609.53,265.891 609.643,265.382 609.772,264.887C610.017,264.238 610.287,263.542 610.287,262.924C610.287,262.146 609.52,262.059 609.43,262.05C609.243,262.033 608.69,262.018 608.435,262.569C608.391,262.664 608.26,263.369 608.175,263.634C608.074,263.949 607.979,264.285 607.892,264.625C607.798,264.856 607.71,265.08 607.649,265.29C607.52,265.736 607.397,266.18 607.273,266.624C607.066,266.75 606.838,266.979 606.635,267.272C606.658,266.877 606.691,266.481 606.738,266.083C606.773,265.787 606.795,265.471 606.837,265.162C606.916,264.962 607.007,264.754 607.082,264.55C607.217,264.183 607.309,263.823 607.309,263.511C607.309,262.796 606.678,262.671 606.54,262.647C606.298,262.603 605.883,262.588 605.557,262.977C605.514,263.027 605.437,263.14 605.373,263.307C605.284,263.541 605.147,264.034 605.088,264.254C605.039,264.434 605.003,264.622 604.974,264.814C604.899,265.015 604.835,265.208 604.799,265.385C604.377,267.413 603.917,269.429 603.509,271.461C603.326,270.337 603.126,269.264 603.001,268.192L603.021,268.127C603.351,267.01 603.693,265.921 603.979,264.795C604.061,264.475 604.18,264.165 604.265,263.846C604.579,262.663 604.996,261.493 605.004,260.279C605.014,260.181 605.099,259.337 605.062,259.168C604.966,258.72 604.606,258.568 604.412,258.513C603.99,258.392 603.614,258.466 603.286,258.69C603.045,258.854 602.832,259.206 602.696,259.409C602.089,260.319 601.798,261.252 601.544,262.258ZM597.589,268.544C597.574,268.76 597.558,268.959 597.537,269.129C597.477,269.602 597.419,270.075 597.349,270.547C597.204,271.528 596.987,273.182 596.969,274.634C596.959,275.498 597,276.283 597.218,276.755C597.402,277.155 597.455,277.781 597.412,278.453C597.366,279.168 597.227,279.944 597.189,280.424C597.331,279.709 597.521,279 597.738,278.296C597.849,277.459 597.969,276.624 598.113,275.792C598.463,273.772 598.867,271.739 599.381,269.744C599.285,269.765 599.212,269.769 599.193,269.77C598.961,269.779 598.455,269.758 598.246,269.21C598.239,269.194 598.197,269.104 598.197,268.917C598.197,268.812 598.2,268.708 598.205,268.605C598.06,268.629 597.928,268.618 597.839,268.606C597.803,268.601 597.705,268.587 597.589,268.544Z" style="fill:white;"/>
            <path d="M597.9,281.883C597.634,285.991 597.063,290.019 596.919,294.2C596.897,294.473 596.885,294.744 596.885,295.007L596.885,295.498C596.574,295.827 596.328,296.233 596.184,296.591C595.507,298.284 595.683,298.897 595.959,300.104C595.423,301.054 594.895,302.008 594.378,302.967C594.613,301.489 594.711,299.978 595.025,298.353C595.14,297.753 595.403,297.144 595.632,296.533C595.905,295.801 596.132,295.066 596.132,294.345C596.132,293.896 595.706,293.531 595.181,293.531C594.656,293.531 594.229,293.896 594.229,294.345C594.229,294.904 594.032,295.47 593.819,296.037C593.562,296.725 593.277,297.413 593.147,298.088C592.584,301.011 592.796,303.554 591.448,306.221C590.932,307.241 590.239,309.483 590.239,310.647C590.239,310.847 590.132,311.032 590.063,311.223C589.972,311.473 589.905,311.727 589.902,311.988C589.894,312.02 589.812,312.349 589.79,312.464C589.758,312.632 589.772,312.761 589.787,312.829C589.9,313.343 590.315,313.483 590.669,313.503C590.819,313.511 591.184,313.53 591.519,313.166C591.97,312.674 592.34,311.971 592.65,311.204C593.053,310.208 593.362,309.098 593.72,308.34C594.583,306.517 595.523,304.71 596.502,302.918C596.526,303.05 596.547,303.182 596.561,303.313C596.863,306.149 596.674,309.082 596.674,311.938L596.674,312.626C596.598,312.73 596.524,312.847 596.454,312.979C596.291,313.284 596.227,313.764 596.275,314.325C596.344,315.13 596.634,316.17 596.671,316.806C596.67,316.937 596.67,317.052 596.671,317.08C596.695,317.753 597.431,317.86 597.469,317.865C597.486,317.867 598.541,317.918 598.576,317.05C598.578,316.992 598.577,316.929 598.574,316.862L598.576,316.422L598.576,314.438C598.596,314.475 598.613,314.512 598.629,314.547C598.981,315.323 599.215,316.119 599.238,316.201C599.839,318.305 600.369,320.422 600.918,322.533C600.793,322.596 600.671,322.684 600.554,322.804C600.18,323.189 599.895,323.724 599.693,324.36C599.331,324.475 599.072,324.773 599.072,325.123C599.072,326.872 599.085,328.607 599.198,330.348C599.28,331.621 599.34,332.894 599.568,334.159L599.568,336.489C599.568,336.881 599.6,337.746 599.68,338.169C599.727,338.417 599.816,338.591 599.879,338.676C600.021,338.87 600.202,338.966 600.357,339.018C600.581,339.094 600.81,339.099 601.046,339.027C601.192,338.982 601.519,338.862 601.693,338.421C602.136,337.299 601.676,335.122 601.47,334.034L601.47,332.977C601.47,331.697 601.12,329.136 601.215,326.908C601.248,326.115 601.319,325.365 601.51,324.763C601.995,326.546 602.516,328.32 603.127,330.075C603.711,331.756 604.504,333.352 605.063,335.025C605.292,335.71 605.505,336.396 605.782,337.056C605.869,337.264 606.042,337.734 606.154,337.954C606.248,338.139 606.359,338.257 606.421,338.309C606.761,338.599 607.118,338.584 607.37,338.523C607.531,338.484 608.079,338.337 608.079,337.669C608.079,333.976 605.474,329.546 604.13,326.151C604.096,326.065 603.725,324.824 603.266,323.892C603.239,323.836 603.21,323.781 603.182,323.727C602.477,321.094 601.837,318.444 601.087,315.815C601.055,315.702 600.663,314.376 600.108,313.364C599.815,312.829 599.458,312.379 599.108,312.135C598.935,312.014 598.757,311.928 598.577,311.876C598.578,310.453 598.623,309.012 598.631,307.573C598.793,307.627 598.958,307.632 599.116,307.611C599.151,307.606 599.871,307.507 599.92,306.841C599.931,306.691 599.962,305.608 600.01,305.194C600.123,304.209 600.212,303.223 600.364,302.235C600.439,301.748 600.519,301.261 600.603,300.775C600.68,300.761 600.761,300.74 600.843,300.712C601.304,303.874 601.738,307.028 602.111,310.205C602.151,310.546 602.724,314.826 602.993,315.599C603.134,316.004 603.427,316.16 603.537,316.208C603.859,316.347 604.169,316.332 604.465,316.182C604.702,316.062 604.923,315.87 605.096,315.593C605.321,315.231 605.48,314.659 605.554,313.976C605.758,312.11 605.416,309.278 605.416,308.824C605.416,304.878 605.611,300.967 605.8,297.043L605.807,297.06L605.838,297.134C605.703,299.491 605.535,301.845 605.535,304.212L605.535,307.077C605.535,307.148 605.533,308.185 605.535,308.391C605.539,309.141 606.466,309.236 606.473,309.236C606.681,309.238 607.101,309.185 607.388,308.761C607.665,308.351 608.26,306.288 608.333,306.142C608.66,305.491 609.006,304.568 609.405,303.592C609.44,303.665 609.473,303.721 609.499,303.757C609.698,304.029 609.958,304.111 610.127,304.143C610.378,304.191 610.63,304.174 610.861,304.037C610.937,304.065 611.016,304.084 611.093,304.096C611.343,304.134 611.722,304.134 612.085,303.775C612.338,303.525 612.481,303.123 612.427,302.642C612.405,302.448 612.349,302.234 612.283,302.028C612.542,301.583 612.996,300.787 613.297,300.073C613.521,299.542 613.655,299.044 613.648,298.702C613.639,298.221 613.401,297.9 613.09,297.716C612.793,297.54 612.228,297.402 611.384,297.767L611.384,294.742C611.384,294.005 611.326,293.266 611.378,292.531C611.449,292.394 611.538,292.247 611.591,292.121C611.707,291.845 611.723,291.599 611.688,291.439C611.636,291.202 611.5,291.023 611.308,290.892C611.149,290.783 610.937,290.695 610.639,290.692C610.209,290.686 609.901,290.846 609.688,291.128C609.582,291.268 609.498,291.472 609.476,291.718C609.462,291.877 609.483,292.078 609.485,292.243C609.447,292.337 609.417,292.422 609.404,292.482C609.249,293.188 609.078,293.809 608.823,294.475C608.835,294.294 608.841,294.114 608.841,293.936C608.841,293.701 608.782,293.59 608.773,293.57C608.664,293.331 608.486,293.224 608.37,293.165C608.216,293.088 608.06,293.053 607.902,293.052C607.905,292.83 607.907,292.609 607.907,292.387C607.907,291.985 608.181,289.837 608.069,288.769C608.017,288.278 607.84,287.932 607.679,287.77C607.422,287.514 607.137,287.412 606.866,287.383C606.588,287.353 606.295,287.403 606.01,287.564C605.741,287.716 605.433,288.037 605.181,288.453C604.769,289.132 604.432,290.086 604.378,290.249C603.845,291.865 603.357,294.409 602.399,296.482C602.331,296.629 602.261,296.773 602.189,296.914C602.086,296.277 601.98,295.64 601.871,295.005C602.212,293.756 602.598,292.52 603.037,291.308L603.244,290.916C603.333,290.748 603.423,290.579 603.512,290.411L603.766,289.933L603.766,289.933C603.891,289.743 604.483,288.837 604.584,288.616C604.821,288.1 604.469,287.773 604.384,287.701C604.016,287.385 603.259,287.204 602.641,287.956C602.473,288.162 602.272,288.514 602.075,288.902C602.202,288.116 602.314,287.298 602.328,286.779C602.34,286.36 602.261,286.058 602.184,285.921C602.067,285.713 601.9,285.592 601.742,285.519C601.418,285.368 601.103,285.35 600.802,285.418C600.759,285.428 600.715,285.44 600.671,285.455C600.626,285.435 600.583,285.419 600.546,285.407C600.455,285.377 600.354,285.354 600.245,285.349C600.076,284.188 599.927,283.024 599.805,281.856C599.888,280.564 599.941,279.264 599.941,277.949L599.941,270.124C599.941,270.038 599.954,269.507 599.916,269.239C599.884,269.01 599.795,268.848 599.735,268.769C599.553,268.528 599.31,268.434 599.093,268.4C598.885,268.367 598.662,268.383 598.431,268.497C598.2,268.612 597.977,268.803 597.81,269.093C597.611,269.436 597.471,269.994 597.409,270.664C597.24,272.495 597.563,275.312 597.563,275.763C597.563,277.825 597.691,279.861 597.9,281.883ZM603.865,297.689C603.5,298.37 603.075,298.986 602.584,299.499C602.917,301.769 603.24,304.033 603.538,306.303C603.592,303.425 603.726,300.56 603.865,297.689ZM608.348,299.311C608.303,299.318 608.258,299.322 608.213,299.324C608.182,299.546 608.156,299.767 608.14,299.99C608.075,300.95 608.148,300.889 608.011,301.785C607.982,301.975 607.955,302.146 607.928,302.302C608.152,301.777 608.391,301.25 608.652,300.754C608.564,300.319 608.467,299.811 608.348,299.311ZM598.554,299.255C598.347,299.617 598.142,299.978 597.937,300.34C598.011,300.669 598.085,301.046 598.146,301.498C598.171,301.68 598.207,301.863 598.247,302.048C598.332,301.119 598.436,300.187 598.554,299.255ZM599.491,292.894C599.348,292.956 599.211,292.973 599.118,292.979C599.077,292.981 599.035,292.982 598.994,292.98C598.918,293.404 598.854,293.852 598.819,294.294C598.813,294.466 598.808,294.638 598.804,294.81L598.839,294.817C598.861,294.822 598.883,294.827 598.904,294.832L598.968,294.85L599.266,294.332L599.349,293.799L599.491,292.894Z" style="fill:white;"/>
            <path d="M585.288,318.118C584.102,318.336 582.943,318.604 581.834,318.958C579.799,319.608 575.477,322.753 573.987,326.5C572.353,330.606 573.744,334.452 575.917,336.626C577.906,338.615 580.779,340.039 584.881,339.7C585.978,339.609 587.52,339.323 589.209,338.551C590.025,338.177 591.659,337.144 592.599,336.534C594.476,335.855 596.398,335.342 598.354,334.817C598.681,334.73 599.102,334.595 599.535,334.447C601.676,334.369 603.802,333.718 605.577,332.472C608.396,330.914 610.262,328.203 610.262,325.123C610.262,320.293 605.674,316.371 600.024,316.371C599.705,316.371 599.387,316.387 599.07,316.416C598.755,316.255 598.508,316.149 598.37,316.081C594.999,314.415 591.315,314.174 587.448,316.444C586.928,316.749 586.103,317.256 585.288,318.118Z" style="fill:white;"/>
            <path d="M595.644,291.866C595.278,292.708 595.048,293.597 594.873,294.492C594.692,295.417 594.642,296.357 594.248,297.136C593.699,298.221 593.535,299.548 593.577,300.94C593.593,301.451 593.63,301.973 593.637,302.48C593.64,302.773 593.704,303.061 593.586,303.293C592.323,305.791 592.177,309.095 591.474,311.875C591.229,312.844 590.616,313.615 590.204,314.464C589.686,315.534 589.327,316.662 589.327,317.971C589.327,319.793 591.058,321.272 593.189,321.272C595.32,321.272 597.05,319.793 597.05,317.971C597.05,317.245 597.481,316.704 597.803,316.12C598.297,315.225 598.761,314.308 599.023,313.269C599.623,310.895 599.595,308.047 600.675,305.914C601.228,304.82 601.393,303.49 601.352,302.099C601.337,301.586 601.299,301.062 601.293,300.554C601.289,300.266 601.222,299.983 601.336,299.756C601.797,298.846 602.068,297.825 602.271,296.76C602.446,295.845 602.517,294.873 602.949,294.018C603.307,293.313 603.276,291.593 603.247,290.923C604.842,287.222 604.597,280.931 604.597,276.987C604.597,275.165 602.867,273.686 600.736,273.686C598.605,273.686 596.874,275.165 596.874,276.987C596.874,280.345 597.439,285.814 595.944,288.769C595.585,289.479 595.615,291.193 595.644,291.866Z" style="fill:white;"/>
            <path d="M574.953,311.721C574.294,311.733 573.475,311.782 572.875,311.931C573.086,311.872 573.271,311.832 573.271,311.832C573.271,311.832 570.852,311.962 569.765,312.434C569.62,312.446 567.478,312.619 566.568,312.619C564.437,312.619 562.707,314.098 562.707,315.92C562.707,317.742 564.437,319.221 566.568,319.221C568.474,319.221 571.246,319.053 573.001,318.416C573.438,318.384 574.264,318.307 575.028,318.162C575.4,318.162 575.867,318.151 576.331,318.114C576.489,318.132 576.649,318.141 576.812,318.141C578.944,318.141 580.674,316.662 580.674,314.84C580.674,313.547 580,312.708 579.115,312.128C578.559,311.764 577.839,311.479 576.924,311.428C576.467,311.403 575.736,311.473 574.953,311.721ZM576.67,318.083C577.086,318.082 577.524,317.998 577.956,317.779C577.653,317.933 577.178,318.026 576.67,318.083ZM572.957,315.021C572.989,315.621 573.186,316.11 573.485,316.514C573.179,316.072 572.991,315.564 572.957,315.021Z" style="fill:white;"/>
            <path d="M543.007,316.363C542.389,316.445 541.305,316.631 540.353,317.008C539.951,317.087 539.463,317.198 538.984,317.338L539.015,317.328C539.015,317.328 537.379,317.329 536.752,317.47C536.196,317.595 535.701,317.79 535.266,318.05C534.368,318.237 533.895,318.637 533.666,318.816C532.807,319.486 532.465,320.27 532.413,321.072C532.37,321.733 532.437,323.193 534.369,324.133C534.52,324.206 534.849,324.342 535.267,324.448C536.023,324.753 536.948,324.991 537.551,325.129C538.24,325.486 538.924,325.88 539.7,326.189C540.103,326.351 540.883,326.502 541.483,326.602C541.852,327.147 542.481,328.037 542.899,328.455C543.834,329.39 544.755,330.325 545.688,331.259C545.156,331.796 544.634,332.344 544.124,332.903C543.642,333.43 542.31,334.676 541.539,335.807C540.849,336.82 540.529,337.837 540.529,338.643C540.529,340.465 542.259,341.944 544.39,341.944C546.308,341.944 547.901,340.746 548.2,339.179L550.211,336.965C550.421,336.735 550.633,336.508 550.847,336.284C551.395,336.85 552.014,337.501 552.652,337.989C553.479,338.621 554.367,339.059 555.218,339.28C556.568,339.631 557.875,339.452 559.071,338.711C559.622,338.37 560.195,337.835 560.645,337.152C561.101,336.46 561.456,335.543 561.61,335.167C562.356,333.343 563.156,331.555 563.87,329.719C564.283,328.656 564.865,326.962 564.427,325.683C563.906,324.159 562.93,323.319 561.931,322.817C560.817,322.257 559.517,322.073 558.121,322.311C556.27,322.626 554.014,324.057 553.027,324.827C552.352,325.353 551.682,325.888 551.022,326.432C550.271,325.677 549.525,324.922 548.769,324.166C548.352,323.749 548.063,323.083 547.679,322.583C547.602,322.483 547.524,322.386 547.442,322.292C547.853,322.272 548.277,322.257 548.559,322.257C550.69,322.257 552.421,320.778 552.421,318.956C552.421,317.135 550.69,315.656 548.559,315.656C546.83,315.656 544.581,315.78 543.007,316.363ZM534.294,323.927C534.445,324.052 534.696,324.235 534.886,324.306C534.959,324.334 535.032,324.359 535.104,324.38C534.778,324.242 534.494,324.089 534.294,323.927ZM534.772,318.442L534.702,318.479C534.589,318.559 534.48,318.646 534.404,318.724C534.471,318.655 534.542,318.588 534.615,318.525C533.929,318.9 533.463,319.432 533.182,320.045C533.431,319.501 534.299,318.803 534.811,318.424L534.772,318.442Z" style="fill:white;"/>
            <path d="M512.908,321.187C512.13,321.269 511.132,321.403 510.807,321.568C510.901,321.52 511.1,321.455 511.1,321.455C511.1,321.455 509.591,321.644 508.381,321.997C507.884,322.039 507.221,322.114 506.904,322.224C506.551,322.346 506.09,322.613 505.687,322.875C505.427,322.867 505.216,322.876 505.095,322.913C504.534,323.081 504.046,323.344 503.628,323.701C503.079,324.17 502.477,324.876 502.477,326.092C502.477,326.471 502.52,326.8 502.594,327.086C501.798,328.199 501.671,329.395 502.199,330.549C501.87,330.628 501.54,330.708 501.21,330.791C497.41,331.745 492.977,332.357 489.449,334.307C488.58,334.224 487.713,334.151 486.84,334.151C486.561,334.151 486.258,334.177 485.957,334.216C485.68,334.219 485.402,334.234 485.143,334.274C484.22,334.418 483.403,334.752 482.731,335.27C481.669,336.087 481.523,336.942 481.47,337.408C481.454,337.555 481.863,339.46 483.286,340.453C483.133,340.801 483.022,341.15 482.962,341.492C482.369,344.878 483.7,347.341 485.926,349.643C486.497,350.234 487.425,350.802 488.792,350.881C489.51,350.922 490.875,350.632 491.139,350.558C493.282,349.953 495.341,348.793 495.955,346.349C496.36,344.734 496.393,343.09 496.086,341.555C497.795,341.686 499.51,341.777 501.256,341.777C503.387,341.777 505.117,340.298 505.117,338.476C505.117,337.876 504.929,337.312 504.6,336.827C505.621,336.581 506.641,336.341 507.657,336.075C507.066,336.95 506.574,337.898 506.391,338.736C506.093,340.103 506.403,341.313 507.122,342.249C507.86,343.21 509.091,344.093 511.313,344.262C512.819,344.377 514.421,344.353 515.953,344.185C516.657,344.821 517.652,345.217 518.755,345.217C519.407,345.217 520.172,345.086 520.945,344.662C521.486,344.366 522.322,343.641 522.829,342.734C523.371,341.766 523.484,340.673 523.353,340.037L523.303,339.837C525.278,340.125 527.259,340.341 529.258,340.341C531.709,340.341 534.181,340.409 536.632,340.339C536.943,340.33 538.241,340.214 538.831,340.141C538.948,340.152 539.063,340.157 539.175,340.159C540.407,340.175 541.507,339.803 542.392,338.908C543.773,337.51 543.412,336.268 543.035,335.481C542.675,334.73 541.952,333.859 540.407,333.521C539.201,332.614 538.019,331.674 536.825,330.745C531.749,326.797 525.828,322.332 519.514,320.754C518.522,320.506 516.033,320.461 514.39,320.758C513.829,320.86 513.333,321.012 512.908,321.187ZM517.205,338.872C516.867,338.988 516.534,339.156 516.261,339.398C516.555,339.185 516.886,339.009 517.244,338.878L517.205,338.872ZM517.521,327.136L516.126,327.214C515.839,327.354 515.515,327.471 515.15,327.556C514.875,327.62 514.241,327.645 513.744,327.653C513.497,327.733 513.244,327.8 512.986,327.854C513.289,327.899 513.491,327.965 513.609,328.001C515.31,328.525 515.809,329.55 516.029,330.246C516.165,330.676 516.291,331.312 516.102,331.985C517.075,332.097 518.043,332.297 518.885,332.422C522.316,332.931 525.724,333.731 529.2,333.739C525.642,330.997 521.74,328.237 517.521,327.136ZM505.595,329.413C505.83,329.473 506.049,329.513 506.231,329.539L506.273,329.527C506.079,329.499 505.842,329.462 505.595,329.413Z" style="fill:white;"/>
            <path d="M470.154,340.839C469.935,340.757 469.732,340.684 469.587,340.635C468.433,340.253 466.818,339.943 465.259,339.508C464.481,339.29 463.66,339.125 463.203,338.668C461.818,337.283 459.378,337.12 457.758,338.304C456.138,339.487 455.947,341.572 457.332,342.957C458.417,344.042 460,344.871 461.793,345.46C463.523,346.028 465.478,346.354 466.796,346.79C467.625,347.065 468.71,347.576 469.727,347.782C470.732,347.986 471.716,347.989 472.626,347.789C473.088,347.687 473.542,347.527 473.974,347.309C474.679,348.64 475.447,349.94 476.232,351.213C476.424,351.525 476.638,351.848 476.86,352.179C477.156,352.73 477.433,353.27 477.667,353.797C477.91,354.341 478.156,354.883 478.357,355.445C478.454,355.715 478.498,355.987 478.586,356.257C478.697,356.598 479.116,357.346 479.302,357.567C479.639,357.965 479.994,358.21 480.257,358.364C481.541,359.118 482.75,359.047 483.706,358.765C484.419,358.556 486.317,357.984 486.317,355.623C486.317,352.971 484.409,350.318 483.065,348.137L482.712,347.56C482.281,346.739 481.934,345.911 481.81,345.088C481.66,344.099 481.011,343.268 480.107,342.758L479.975,342.47C479.71,341.875 479.259,340.593 478.715,339.715C478.111,338.739 477.306,338.064 476.596,337.709C475.047,336.935 473.637,337.08 472.358,337.776C471.892,338.03 471.406,338.411 471.016,338.946C470.661,339.432 470.356,340.283 470.25,340.598C470.228,340.663 470.195,340.746 470.154,340.839Z" style="fill:white;"/>
            <path d="M265.725,177.119L264.151,177.128C261.369,177.128 258.437,177.378 255.631,177.378C253.5,177.378 251.77,178.857 251.77,180.678C251.77,182.5 253.5,183.979 255.631,183.979C258.437,183.979 261.369,183.729 264.151,183.729C264.961,183.729 266.498,183.775 267.609,183.569C268.937,183.322 269.946,182.762 270.579,182.121C271.954,180.729 271.749,178.645 270.121,177.469C268.852,176.554 267.092,176.458 265.725,177.119Z" style="fill:white;"/>
            <path d="M217.468,227.465C217.525,228.187 217.701,228.62 218.075,229.368C218.466,230.15 218.489,231.461 218.489,232.499C218.489,234.321 220.22,235.8 222.351,235.8C224.482,235.8 226.212,234.321 226.212,232.499C226.212,230.595 225.897,228.221 225.181,226.783C225.224,226.562 225.247,226.321 225.247,226.057C225.247,224.403 224.313,223.566 223.375,223.143C222.706,222.665 221.843,222.377 220.902,222.377C218.771,222.377 217.041,223.855 217.041,225.677C217.041,226.367 217.222,226.972 217.468,227.465ZM217.579,225.512C217.558,225.611 217.542,225.714 217.534,225.824L217.579,225.512Z" style="fill:white;"/>
            <path d="M222.117,253.581C222.162,253.948 222.223,254.361 222.293,254.571C222.362,254.778 222.447,254.97 222.543,255.147C222.549,255.74 222.591,256.975 222.825,257.779C222.825,257.919 222.83,259.303 222.881,259.943C222.973,261.086 223.409,261.986 223.886,262.555C223.974,264.31 225.669,265.712 227.743,265.712C229.874,265.712 231.604,264.233 231.604,262.411C231.604,261.374 231.18,260.191 230.59,259.283C230.588,258.841 230.578,257.97 230.545,257.493C230.504,256.89 230.384,256.354 230.222,255.923C230.239,255.59 230.284,254.508 230.208,254.012C230.128,253.486 229.96,253.008 229.716,252.582C229.609,251.957 229.386,250.83 229.116,250.413C228.325,249.188 227.108,248.516 225.38,248.516C223.248,248.516 221.518,249.995 221.518,251.817C221.518,252.465 221.738,253.071 222.117,253.581ZM225.2,255.113C225.259,255.116 225.319,255.117 225.38,255.117L225.2,255.113ZM225.06,255.106L225.122,255.109L225.036,255.104L225.06,255.106Z" style="fill:white;"/>
            <path d="M227.243,282.411C227.24,282.71 227.246,283.017 227.274,283.214C227.384,283.994 227.706,284.642 228.137,285.149C228.23,285.615 229.3,291.024 229.3,292.529C229.3,294.351 231.03,295.83 233.161,295.83C235.293,295.83 237.023,294.351 237.023,292.529C237.023,290.928 236.685,287.227 236.01,284.677C235.728,283.613 235.335,282.705 234.923,282.024C234.875,281.291 234.746,279.916 234.45,279.425C233.723,278.223 232.555,277.412 230.554,277.412C228.422,277.412 226.692,278.891 226.692,280.712C226.692,281.334 226.893,281.915 227.243,282.411ZM230.338,284.008L230.347,284.008L230.276,284.004L230.338,284.008ZM230.131,283.993L230.139,283.994L230.109,283.99L230.131,283.993Z" style="fill:white;"/>
            <path d="M232.003,308.621L232.002,308.619L232.003,308.636L232.006,308.722C232.011,308.778 232.016,308.834 232.021,308.89L232.033,308.974C232.078,309.465 232.17,310.325 232.281,310.627C232.327,310.751 232.378,310.866 232.433,310.973C232.453,311.377 232.505,312.174 232.602,312.572C232.714,313.034 232.895,313.45 233.129,313.817L233.14,315.635C233.14,316.251 233.314,317.095 233.581,318.009C233.771,318.658 234.066,319.378 234.066,319.959C234.066,321.781 235.796,323.26 237.927,323.26C240.058,323.26 241.789,321.781 241.789,319.959C241.789,319.041 241.521,317.921 241.208,316.863C241.067,316.386 240.863,315.946 240.863,315.635C240.863,314.845 240.927,313.563 240.762,312.641C240.649,312.012 240.432,311.465 240.163,311.015C240.143,310.614 240.096,309.882 240.012,309.518C239.945,309.227 239.852,308.955 239.735,308.703L239.723,308.471C239.714,308.177 239.674,308.018 239.669,307.994C239.281,306.038 237.619,305.588 237.252,305.467L235.862,311.847L234.522,305.451C233.906,305.646 232.959,306.041 232.353,307.169C232.345,307.184 232.001,307.612 232.001,308.553L232.003,308.621ZM239.699,308.918L239.72,308.96L239.718,309.244C239.712,309.46 239.707,309.676 239.701,309.892L239.68,310.358C239.641,310.313 239.6,310.271 239.559,310.23C239.598,310.269 239.639,310.319 239.68,310.377C239.242,318.99 235.539,314.455 233.44,311.122C234.102,311.579 234.945,311.853 235.862,311.853C237.849,311.853 239.487,310.568 239.699,308.918ZM239.72,308.67L239.722,308.675L239.723,308.553L239.72,308.67Z" style="fill:white;"/>
            <path d="M237.354,337.777L237.347,337.893C237.347,338.031 237.355,338.159 237.37,338.275L237.37,338.284C237.382,338.9 237.424,339.773 237.565,340.156L237.563,340.574C237.563,341.381 237.783,343.132 238.171,344.362C238.275,344.689 238.398,344.992 238.534,345.266C238.576,345.411 238.629,345.552 238.692,345.688C238.752,346.26 238.859,347.045 239.01,347.347C239.202,347.732 239.331,348.198 239.331,348.674C239.331,350.496 241.061,351.975 243.193,351.975C245.324,351.975 247.054,350.496 247.054,348.674C247.054,347.462 246.777,346.273 246.335,345.239C246.316,344.794 246.265,343.998 246.154,343.666L246.122,343.58C246.086,342.667 245.995,341.386 245.809,340.628C245.69,340.143 245.509,339.736 245.314,339.41L245.262,339.268L245.26,339.223L245.35,339.435C245.35,339.435 245.31,339.23 245.238,338.922C245.224,338.771 245.206,338.637 245.182,338.529C245.148,338.374 245.106,338.229 245.057,338.093C245.065,338.015 245.07,337.945 245.07,337.893C245.07,336.116 243.918,335.506 243.84,335.443C242.903,334.698 241.887,334.507 240.929,334.566C240.06,334.62 238.906,334.876 238.009,336.008C237.91,336.133 237.475,336.608 237.364,337.528C237.359,337.571 237.355,337.66 237.354,337.777ZM237.37,338.28C237.363,337.896 237.367,337.613 237.367,337.613C237.367,337.613 237.359,337.696 237.354,337.777C237.353,337.913 237.357,338.088 237.37,338.275L237.37,338.28ZM245.048,338.069C245.044,337.905 245.023,337.644 244.967,337.468C244.801,336.95 244.499,336.558 244.227,336.286C244.505,336.565 244.754,337.196 244.946,337.821C244.982,337.9 245.016,337.982 245.048,338.069ZM241.584,335.649L241.623,335.652L241.6,335.65L241.584,335.649ZM241.341,335.64L241.4,335.642L241.355,335.64L241.341,335.64Z" style="fill:white;"/>
            <path d="M325.862,352.125C325.198,352.126 324.454,352.244 323.781,352.456C322.883,352.494 321.815,352.599 321.271,352.867L321.216,352.892C319.132,352.937 317.457,354.398 317.457,356.191C317.457,357.776 318.767,359.101 320.512,359.418C320.847,359.501 321.2,359.544 321.566,359.544C322.706,359.544 324.338,359.33 325.65,358.941C326.161,358.923 326.656,358.877 326.972,358.778C327.164,358.718 327.565,358.531 327.834,358.4C327.995,358.36 328.113,358.327 328.162,358.306C330.285,357.406 330.347,355.865 330.309,355.188C330.273,354.53 330.03,353.883 329.468,353.282C329.267,353.068 328.519,352.04 326.415,352.04C326.278,352.04 326.084,352.072 325.862,352.125ZM324.44,352.548L324.371,352.566L324.333,352.585L324.285,352.612L324.451,352.553L324.5,352.536L324.44,352.548ZM325.861,352.125C325.568,352.127 324.926,352.333 324.656,352.435L324.806,352.433C325.153,352.318 325.537,352.201 325.861,352.125Z" style="fill:white;"/>
            <path d="M351.08,347.732C350.743,347.738 350.38,347.753 350.188,347.784C349.541,347.889 349.017,348.098 348.61,348.332C347.462,348.99 346.825,349.919 346.825,351.19C346.825,353.012 348.556,354.491 350.687,354.491C351.157,354.491 351.608,354.419 352.025,354.286C352.481,354.267 352.999,354.233 353.242,354.174C353.623,354.081 353.959,353.953 354.253,353.799C354.653,353.741 355.394,353.625 355.705,353.548C356.655,353.311 357.414,353.078 358.146,352.77C358.664,352.815 359.727,352.903 360.126,352.903C362.257,352.903 363.987,351.424 363.987,349.602C363.987,347.78 362.257,346.301 360.126,346.301C359.544,346.301 358.493,346.128 357.66,346.146C356.576,346.17 355.641,346.409 354.962,346.744C354.531,346.957 354.108,347.07 353.548,347.209C352.913,347.367 351.774,347.474 351.102,347.723L351.08,347.732ZM354.175,352.606C354.417,352.196 354.548,351.728 354.548,351.19C354.548,351.697 354.414,352.177 354.175,352.606Z" style="fill:white;"/>
            <path d="M442.369,337.522C442.108,337.491 441.831,337.479 441.538,337.491C441.154,337.506 440.439,337.69 439.889,337.848C439.65,337.743 439.376,337.649 439.063,337.579C438.611,337.476 436.98,337.484 436.769,337.502C435.534,337.604 434.236,338.035 433.034,338.322C429.416,339.184 425.283,339.372 421.928,341.039C421.419,341.292 420.227,342.023 419.773,342.304L419.318,342.303C417.951,342.031 416.457,342.408 415.489,343.387C414.594,344.294 414.471,345.217 414.616,346.03C414.755,346.812 415.197,347.834 416.698,348.49C416.95,348.6 417.344,348.744 417.884,348.825C418.426,348.907 420.125,348.907 420.369,348.907C421.24,348.907 422.24,348.693 423.241,348.234C424.141,347.822 425.113,347.092 425.807,346.747C428.296,345.511 431.348,345.406 434.113,344.888C433.957,345.295 433.802,345.771 433.775,346.103C433.683,347.247 434.184,348.096 434.732,348.644C435.367,349.278 436.37,349.836 437.803,349.898C438.509,349.928 440.105,349.6 440.62,349.489C441.35,349.415 442.311,349.469 443.199,349.419C444.458,349.349 445.627,349.123 446.532,348.735C446.691,348.667 446.842,348.598 446.984,348.527C447.087,348.541 447.192,348.553 447.301,348.561C447.726,348.594 448.4,348.576 449.177,348.345C449.902,348.129 451.102,347.542 451.267,347.45C453.036,346.467 454.858,345.736 456.601,344.769C458.875,343.508 460.825,341.666 462.97,340.205C464.599,339.095 466.245,338.013 467.936,336.998C467.918,337.009 467.835,337.056 467.835,337.056C467.835,337.056 469.828,335.819 470.187,335.388C470.794,334.66 470.934,333.957 470.94,333.435C470.968,331.087 465.232,330.347 465.232,330.347C465.232,330.347 465.513,330.266 465.623,330.244C464.883,330.397 464.143,330.608 463.424,330.789C462.727,330.965 462.034,330.888 461.349,330.94C460.267,331.024 459.197,331.221 458.118,331.677C456.801,332.234 455.437,332.951 454.036,333.242C453.414,333.371 452.742,333.27 452.077,333.24C451.139,333.199 450.206,333.187 449.313,333.289C448.276,333.408 447.253,333.82 446.201,333.82C444.07,333.82 442.34,335.299 442.34,337.121C442.34,337.257 442.349,337.391 442.369,337.522ZM421.511,347.517L421.389,347.646C421.432,347.603 421.473,347.56 421.511,347.517ZM422.061,346.662C421.933,346.959 421.753,347.244 421.52,347.507C421.771,347.225 421.945,346.941 422.061,346.662ZM422.125,346.503L422.077,346.624L422.116,346.53L422.125,346.503ZM422.254,345.015L422.256,345.024L422.254,345.015ZM422.226,344.876L422.227,344.88L422.226,344.876ZM451.308,339.803C450.98,339.792 450.656,339.795 450.341,339.832C448.969,339.989 447.593,340.422 446.201,340.422C446.051,340.422 445.903,340.414 445.758,340.399C445.783,340.561 445.792,340.724 445.788,340.889C445.951,340.842 446.109,340.808 446.261,340.781C447.117,340.632 447.963,340.696 448.767,341.035C449.617,340.62 450.469,340.227 451.308,339.803ZM439.139,338.075L439.256,338.038L439.254,338.038L439.139,338.075Z" style="fill:white;"/>
            <path d="M482.866,326.507C481.841,326.531 480.583,326.837 479.298,326.837C478.675,326.837 477.76,326.922 477.096,327.115C476.869,327.181 476.655,327.259 476.457,327.347L476.381,327.358C474.3,327.821 473.829,329.111 473.673,329.551C473.353,329.56 473.032,329.564 472.713,329.564C470.582,329.564 468.852,331.043 468.852,332.865C468.852,334.686 470.582,336.165 472.713,336.165C478.89,336.165 485.395,334.84 491.116,333.394C492.89,332.945 495.1,332.253 496.853,331.471L497.321,331.48C498.075,331.48 499.972,331.013 500.232,330.884C502.133,329.94 502.206,328.532 502.156,327.822C502.093,326.944 501.71,325.988 500.424,325.264C500.179,325.125 499.535,324.713 498.238,324.713C495.98,324.713 493.63,325.097 491.288,325.097C490.274,325.097 489.036,324.985 487.909,325.036C486.549,325.098 485.3,325.372 484.297,325.868C483.839,326.094 483.357,326.305 482.866,326.507Z" style="fill:white;"/>
            <path d="M463.916,333.749L464.724,333.976C464.913,334.696 464.967,335.507 465.088,336.232C465.387,338.036 467.342,339.293 469.452,339.037C471.563,338.782 473.033,337.11 472.734,335.306C472.477,333.752 472.227,331.977 471.552,330.627C471.171,329.865 470.33,328.997 469.026,328.369C467.441,327.604 465.014,327.148 464.067,327.148C459.954,327.148 455.697,327.064 451.741,327.885C440.243,330.273 428.134,329.804 416.686,332.181C411.907,333.174 407.372,334.483 402.423,334.483C400.292,334.483 398.561,335.962 398.561,337.784C398.561,339.606 400.292,341.085 402.423,341.085C407.997,341.085 413.126,339.714 418.509,338.596C429.957,336.219 442.066,336.687 453.564,334.3C456.885,333.611 460.46,333.745 463.916,333.749Z" style="fill:white;"/>
            <path d="M380.531,341.204C380.162,341.119 379.719,341.069 379.2,341.097C378.823,341.118 377.841,341.343 377.095,341.526C376.472,341.561 375.845,341.578 375.213,341.578C371.471,341.578 367.731,342.892 364.081,343.65C362.306,344.018 360.609,344.614 359.17,345.708C357.681,346.07 357.156,346.895 356.967,347.162C356.943,347.196 356.735,347.931 356.749,348.827C356.107,349.611 356.085,350.476 356.091,350.812C356.095,351.09 356.28,354.075 360.097,354.075C366.972,354.075 372.366,352.707 377.747,351.304C382.444,350.079 387.128,348.82 393.108,348.82C395.239,348.82 396.97,347.341 396.97,345.519C396.97,345.276 396.939,345.039 396.879,344.811C398.867,344.48 400.834,344.259 402.795,344.259C404.926,344.259 406.656,342.78 406.656,340.958C406.656,339.137 404.926,337.658 402.795,337.658C398.116,337.658 393.384,338.669 388.503,339.718C385.903,340.276 383.254,340.846 380.531,341.204Z" style="fill:white;"/>
            <path d="M584.193,300.678L259.99,353.984" style="fill:none;stroke:black;stroke-width:5.96px;"/>
            <path d="M584.535,300.931L602.209,186.996L228.226,192.66" style="fill:none;stroke:black;stroke-width:5.96px;"/>
        </g>
        <path d="M919.932,105.704L885.155,353.512" style="fill:none;stroke:white;stroke-width:12px;"/>
        <path d="M216.064,171.451L258.929,456.571" style="fill:none;stroke:white;stroke-width:12px;"/>
        <path d="M438.195,440.189L880.824,355.199" style="fill:none;stroke:white;stroke-width:12px;"/>
        <path d="M284.914,466.809L438.195,440.189" style="fill:none;stroke:white;stroke-width:12px;"/>
        <path d="M914.369,88.006L684.746,91.849L918.515,91.161" style="fill:none;stroke:white;stroke-width:12px;"/>
        <path d="M898.823,297.505C893.766,309.299 890.894,321.466 888.917,333.512C888.194,337.911 887.016,344.459 886.151,349.18C881.119,349.367 874.486,349.675 870.259,350.073C858.623,351.166 847.453,353.943 837.031,359.217C821.041,367.308 796.825,367.923 774.633,371.141C752.222,374.391 731.069,379.065 714.495,386.549C707.064,388.557 679.695,396.256 668,403.184C656.992,409.705 649.496,417.89 644.942,425.547C637.639,437.825 635.458,450.874 638.109,464.44C639.923,473.725 644.187,484.224 654.368,494.404C658.858,498.895 669.564,508.5 689.337,509.305C700.649,509.766 747.21,502.18 753.657,500.577C773.661,495.603 791.171,485.333 810.956,479.144C817.534,478.951 831.31,478.275 838.143,475.954C854.49,470.402 871.582,466.127 888.084,460.61C895.132,458.254 910.207,451.576 913.528,450.089C928.837,448.907 942.205,440.759 950.473,428.812C966.728,416.198 975.537,400.138 980.827,381.792C984.217,370.035 983.426,355.988 987.748,342.768C1006.29,328.58 1012.77,302.769 1001.95,281.12C1001.34,279.905 1000.22,277.837 999.285,276.146C998.806,273.113 998.222,270.196 997.583,268.394C995.339,262.059 992.229,257.193 989.268,253.537C978.205,239.88 964.319,234.865 949.868,235.056C940.237,235.183 927.466,237.295 914.99,249.922C904.84,260.194 900.442,284.914 898.823,297.505ZM1000.43,285.492L1000.59,287.613C1000.59,286.998 1000.53,286.277 1000.43,285.492Z" style="fill:white;"/>
        <path d="M488.653,433.449C477.605,435.065 472.045,433.582 462.356,435.565C463.239,435.384 465.689,435.027 465.689,435.027C465.689,435.027 438.073,442.048 430.451,448.543C418.572,458.664 412.155,471.781 412.155,488.083C412.155,515.511 434.423,537.778 461.85,537.778C469.703,537.778 477.132,535.953 483.734,532.697C491.695,531.325 496.63,532.918 506.682,531.254C514.289,529.995 527.652,524.766 531.403,523.257C541.131,521.863 551.405,524.408 560.629,522.881C569.529,521.408 578.168,517.257 586.978,515.107C599.328,512.091 610.626,511.714 623.491,511.714C650.918,511.714 673.186,489.446 673.186,462.019C673.186,434.592 650.918,412.324 623.491,412.324C602.298,412.324 583.751,413.586 563.406,418.553C556.987,420.12 550.883,423.752 544.398,424.826C533.943,426.556 522.241,423.785 511.283,425.865C504.549,427.144 492.248,431.994 488.653,433.449Z" style="fill:white;"/>
        <path d="M275.917,456.152C273.374,455.195 270.832,456.288 270.811,462.3L270.81,462.329L270.81,464.549C270.592,465.342 269.967,467.762 270.082,468.824C270.286,470.708 271.035,472.354 272.881,473.395C273.809,474.358 275.112,474.956 276.553,474.956C279.064,474.956 281.155,473.14 281.579,470.75C282.048,469.978 282.318,469.072 282.318,468.104C282.318,467.133 282.047,466.224 281.575,465.451L281.575,465.127C281.575,464.042 281.181,462.504 281.018,461.917C280.893,456.242 278.405,455.216 275.917,456.152Z"/>
        <path d="M281.515,462.148C283.439,461.416 284.807,459.553 284.807,457.374C284.807,454.556 282.519,452.267 279.7,452.267C278.414,452.267 276.029,453.213 275.092,454.226C274.067,455.335 273.667,456.609 273.667,457.841C273.667,460.659 275.955,462.948 278.774,462.948C279.783,462.948 280.724,462.655 281.515,462.148ZM283.854,458.372C283.819,458.71 283.75,459.039 283.652,459.355C283.756,459.03 283.821,458.7 283.854,458.372ZM283.872,458.134L283.855,458.353L283.864,458.266L283.872,458.134ZM283.875,458.088C283.879,458.006 283.881,457.923 283.881,457.841L283.875,458.088Z"/>
        <path d="M281.413,453.378C279.745,453.731 278.491,455.213 278.491,456.987C278.491,459.023 280.145,460.677 282.181,460.677C282.783,460.677 283.399,460.461 283.954,460.171C285.671,459.856 286.974,458.35 286.974,456.543C286.974,454.753 286.206,454.023 285.95,453.747C285.118,452.853 284.144,452.523 283.082,452.565C282.836,452.574 282.091,452.979 281.413,453.378ZM279.618,456.965L279.625,457.017L279.616,456.94L279.618,456.965ZM279.6,456.762L279.607,456.844L279.6,456.744L279.6,456.762ZM280.863,453.707C280.451,453.926 280.151,454.151 280.151,454.151C280.151,454.151 280.452,453.958 280.863,453.707Z"/>
        <path d="M329.707,435.071C329.348,435.154 328.983,435.301 328.613,435.518C328.239,435.737 327.555,436.19 327.092,437.225C326.92,437.608 326.493,439.392 326.623,440.736C326.659,441.102 326.73,441.445 326.828,441.762C326.891,442.879 327.309,443.415 327.405,443.566C327.6,443.873 327.81,444.127 328.031,444.336C328.21,444.657 328.418,444.907 328.646,445.093C329.312,446.744 330.585,447.008 331.859,446.56C333.116,447.002 334.373,446.75 335.046,445.153C335.846,444.71 336.799,443.785 336.799,441.838C336.799,441.168 336.621,440.54 336.307,439.999C336.16,439.447 335.932,438.601 335.8,438.153C335.705,437.829 335.59,437.538 335.464,437.281C335.104,435.621 333.625,434.377 331.859,434.377C331.056,434.377 330.312,434.634 329.707,435.071ZM335.634,439.531L335.591,439.728C335.61,439.664 335.628,439.595 335.644,439.521L335.637,439.513L335.634,439.531ZM335.694,439.206C335.708,439.083 335.716,438.951 335.716,438.808C335.716,438.914 335.707,439.047 335.686,439.199L335.694,439.206Z"/>
        <path d="M326.69,440.872L326.796,441.989C326.962,443.387 327.67,443.98 327.755,444.072C328.495,444.87 329.311,445.139 330.007,445.225C330.793,445.323 331.57,445.189 332.323,444.749C332.441,444.681 333.67,444.156 334.044,442.543C336.026,442.979 338.318,442.748 338.318,439.569C338.318,439.006 338.192,438.472 337.965,437.995C337.836,437.479 337.666,436.926 337.463,436.521C336.878,435.349 336,434.856 335.179,434.619C334.975,434.56 334.764,434.515 334.545,434.489C333.934,434.016 332.769,433.139 331.782,432.832C330.022,432.284 328.435,432.657 327.209,433.868C326.609,434.461 325.882,435.748 325.961,437.495C326.012,438.623 326.382,440.121 326.69,440.872ZM334.142,441.855C334.392,441.857 334.65,441.83 334.914,441.774C335.243,441.705 337.259,440.132 337.259,440.132C337.259,440.132 335.789,441.261 334.147,441.765L334.147,441.775L334.142,441.855ZM326.793,441.108C326.779,441.25 326.772,441.399 326.772,441.555C326.772,441.408 326.781,441.262 326.799,441.119L326.793,441.108ZM328.515,438.422C328.183,438.595 327.075,439.234 326.824,440.864L326.834,440.883C327.025,439.846 327.65,438.96 328.515,438.422ZM332.575,438.532L332.613,438.559L332.602,438.551L332.575,438.532ZM331.905,438.159C332.114,438.248 332.313,438.356 332.5,438.48C332.302,438.346 332.102,438.241 331.905,438.159ZM331.833,438.13L331.895,438.155L331.882,438.149L331.833,438.13Z" style="fill:white;"/>
        <path d="M207.314,296.914L212.165,324.246L236.631,304.646L262.06,463.226" style="fill:none;stroke:white;stroke-width:12px;"/>
        <path d="M640.134,109.364C640.543,115.85 641.811,119.994 641.811,119.994" style="fill:none;stroke:black;stroke-width:12px;"/>
        <path d="M697.102,91.602L697.058,91.6L695.849,91.6C694.348,91.6 692.717,91.665 691.187,91.665C689.15,91.665 687.497,93.319 687.497,95.355C687.497,97.392 689.15,99.045 691.187,99.045C692.717,99.045 694.348,98.979 695.849,98.979L697.058,98.979C697.009,98.979 696.817,98.971 696.817,98.971C696.817,98.971 698.258,98.892 698.661,98.779C700.643,98.718 702.233,97.09 702.233,95.092C702.233,93.056 700.58,91.403 698.543,91.403C698.324,91.403 697.692,91.487 697.102,91.602Z" style="fill:white;"/>
        <path d="M273.791,106.528C276.926,106.528 280.143,106.339 283.332,106.339C285.368,106.339 287.022,104.685 287.022,102.649C287.022,100.612 285.368,98.959 283.332,98.959C280.143,98.959 276.926,99.149 273.791,99.149C271.755,99.149 270.102,100.802 270.102,102.839C270.102,104.875 271.755,106.528 273.791,106.528Z" style="fill:white;"/>
        <path d="M226.746,121.963C227.264,121.963 227.666,121.835 228.138,121.835C230.174,121.835 231.828,120.182 231.828,118.145C231.828,116.109 230.174,114.455 228.138,114.455C227.666,114.455 227.264,114.583 226.746,114.583C224.709,114.583 223.056,116.237 223.056,118.273C223.056,120.31 224.709,121.963 226.746,121.963Z"/>
        <path d="M228.729,114.356C227.217,114.817 226.116,116.223 226.116,117.885C226.116,119.922 227.769,121.575 229.806,121.575C232.189,121.575 234.089,119.773 234.089,117.645C234.089,115.609 232.436,113.955 230.399,113.955C229.798,113.955 229.23,114.099 228.729,114.356ZM226.714,117.472C226.711,117.53 226.709,117.588 226.709,117.645L226.714,117.472ZM226.723,117.327L226.719,117.392L226.725,117.305L226.723,117.327ZM226.74,117.168L226.736,117.204L226.745,117.14L226.74,117.168ZM226.764,117.01L226.761,117.033L226.772,116.971L226.764,117.01ZM226.795,116.852L226.791,116.871L226.817,116.762L226.795,116.852ZM228.171,114.705C227.499,115.171 227.032,115.911 226.827,116.717C227.038,115.903 227.52,115.198 228.171,114.705Z"/>
        <path d="M225.906,118.441C226.148,119.175 226.616,120.421 227.134,120.922C228.598,122.337 230.936,122.298 232.351,120.834C233.527,119.618 233.699,117.8 232.884,116.408C232.651,115.685 232.2,114.467 231.698,113.965C230.258,112.525 227.92,112.525 226.48,113.965C225.267,115.177 225.076,117.027 225.906,118.441Z"/>
        <path d="M326.132,434.598C326.132,436.15 326.402,437.351 326.745,438.505C327.031,439.466 327.438,440.36 327.438,441.783C327.438,443.82 329.092,445.473 331.128,445.473C333.165,445.473 334.818,443.82 334.818,441.783C334.818,440.116 334.548,438.852 334.213,437.696C333.929,436.715 333.512,435.882 333.512,434.598C333.512,432.562 331.858,430.909 329.822,430.909C327.785,430.909 326.132,432.562 326.132,434.598Z"/>
        <path d="M330.417,439.166C330.419,439.59 330.435,440.498 330.529,440.923C330.606,441.269 330.716,441.593 330.857,441.894C330.929,442.453 331.041,443.113 331.188,443.406C331.195,443.421 331.199,443.451 331.201,443.474C331.238,445.478 332.877,447.093 334.889,447.093C336.926,447.093 338.579,445.439 338.579,443.403C338.579,442.423 338.275,441.194 337.897,440.34C337.727,439.611 337.464,438.693 337.137,438.165C337.489,438.719 337.781,439.657 337.781,439.657C337.781,439.657 337.717,437.689 337.355,436.703C337.349,436.629 337.254,435.462 337.254,435.01C337.254,432.973 335.601,431.32 333.564,431.32C331.528,431.32 329.874,432.973 329.874,435.01C329.874,436.168 330.018,437.935 330.417,439.166ZM338.073,441.158L338.124,441.432C338.124,441.432 338.105,441.319 338.073,441.158ZM337.083,438.083L337.122,438.141L337.097,438.102L337.083,438.083ZM337.012,437.988L337.032,438.013L337.017,437.993L337.012,437.988Z"/>
        <path d="M325.838,436.898C325.785,437.186 325.761,437.495 325.771,437.824C325.791,438.477 326.058,439.418 326.353,440.141C326.438,442.109 326.837,443.376 327.41,444.109C327.43,444.469 327.455,444.997 327.455,445.204C327.455,447.241 329.109,448.894 331.145,448.894C333.182,448.894 334.835,447.241 334.835,445.204C334.835,444.513 334.816,443.134 334.592,442.135C334.446,441.481 334.208,440.915 333.928,440.451L333.908,440.366L333.905,440.356C333.913,440.187 333.893,439.969 333.857,439.734C333.957,439.935 334.022,440.081 334.022,440.081C334.022,440.081 333.942,439.831 333.814,439.477C333.78,439.28 333.737,439.08 333.695,438.895L333.681,438.743L333.648,438.536L333.646,438.517C333.592,438.257 333.519,438.025 333.434,437.821L333.433,437.767C333.436,437.729 333.438,437.691 333.438,437.652L333.438,436.969C333.438,436.301 333.146,435.469 332.93,434.948C332.605,433.244 331.105,431.954 329.307,431.954C327.27,431.954 325.617,433.607 325.617,435.644C325.617,436.046 325.713,436.492 325.838,436.898ZM326.341,439.373L326.335,439.321C326.335,439.607 326.341,439.88 326.353,440.141L326.434,440.339L326.445,440.361L326.471,440.516L326.489,440.599C326.546,441.003 326.615,441.394 326.685,441.559C326.824,441.889 326.994,442.165 327.173,442.397C327.323,443.138 327.554,444.042 327.863,444.559C328.993,445.4 330.543,444.747 331.763,443.498C331.16,443.797 330.592,443.855 330.133,443.855C329.173,443.856 328.287,443.535 327.527,442.795C327.475,442.744 327.422,442.689 327.37,442.631C327.521,443.078 327.705,443.519 327.902,443.77L327.978,443.857C327.952,443.832 327.927,443.802 327.902,443.77C327.662,443.479 327.409,442.947 327.2,442.431L327.189,442.418L327.173,442.397L327.162,442.34C327.079,442.133 327.002,441.932 326.937,441.753C326.81,441.539 326.696,441.298 326.603,441.032C326.558,440.902 326.52,440.754 326.489,440.599L326.462,440.397L326.445,440.361C326.381,439.982 326.349,439.598 326.341,439.373ZM327.96,444.704L327.963,444.708L327.96,444.704ZM327.41,444.109C327.548,444.287 327.697,444.434 327.853,444.552L327.854,444.553L327.905,444.627L327.867,444.567L327.863,444.559L327.853,444.552C327.632,444.217 327.391,443.748 327.391,443.748L327.41,444.109ZM332.574,439.174C331.864,439.548 330.806,439.705 329.748,439.659C328.862,439.697 327.975,439.594 327.294,439.337C327.909,440.124 328.621,440.9 329.086,440.975C329.758,441.083 330.918,441.234 332.139,440.028C332.296,439.872 332.444,439.549 332.574,439.174ZM333.697,439.639L333.698,439.627L333.678,439.584L333.697,439.639ZM333.211,438.656L333.211,438.656L333.257,438.707L333.268,438.722L333.266,438.717L333.26,438.71L333.211,438.656Z"/>
        <path d="M278.872,471.714C278.872,471.36 278.796,470.954 278.796,470.648" style="fill:white;"/>
        <path d="M282.562,471.714C282.562,471.36 282.486,470.954 282.486,470.648C282.486,468.612 280.832,466.959 278.796,466.959C276.759,466.959 275.106,468.612 275.106,470.648C275.106,470.954 275.182,471.36 275.182,471.714C275.182,473.751 276.836,475.404 278.872,475.404C280.909,475.404 282.562,473.751 282.562,471.714Z"/>
        <path d="M295.139,592.727L203.823,10.808L264.735,-126.256" style="fill:none;stroke:rgb(5,1,1);stroke-width:14px;"/>
        <path d="M199.077,-2.968C198.646,-2.898 198.239,-2.752 197.872,-2.545C196.257,-3.108 194.412,-2.484 193.496,-0.96C192.447,0.785 193.013,3.054 194.758,4.103C196.828,5.348 199.048,5.69 201.312,5.704C203.159,5.715 205.053,5.215 206.688,6.032C207.447,6.411 209.468,6.661 210.44,6.763C210.464,8.127 210.56,9.528 210.643,10.001C211.032,12.244 212.647,12.921 213.639,13.118C214.72,13.607 215.75,13.504 216.704,13.041C217.051,12.873 218.724,12.227 218.786,9.823C218.817,9.72 218.845,9.616 218.87,9.509C218.952,9.147 218.98,8.401 218.988,7.982C219.296,7.111 219.494,5.96 219.5,4.732C219.51,2.762 219.051,0.617 218.516,-0.454C217.831,-1.824 216.466,-2.926 214.488,-3.417C212.447,-3.924 209.381,-3.697 207.754,-3.697C207.15,-3.697 205.725,-3.8 204.965,-3.654C204.688,-3.6 204.432,-3.526 204.198,-3.437L203.91,-3.426L203.572,-3.405C203.118,-3.63 202.527,-3.792 201.756,-3.792C200.928,-3.792 199.944,-3.48 199.077,-2.968ZM217.855,11.477L217.693,11.648C217.748,11.595 217.802,11.538 217.855,11.477Z" style="fill:rgb(248,248,248);"/>
        <path d="M275.708,462.957L873.9,347.149" style="fill:none;stroke:black;stroke-width:13px;"/>
        <path d="M202.144,364.48L202.144,379.21L202.146,379.276C202.194,383.514 204.014,384.302 205.834,383.636C207.156,384.12 208.48,383.836 209.122,382.016C209.3,382.505 209.481,382.991 209.664,383.477C211.826,389.209 214.415,394.569 217.01,400.097C217.473,401.083 217.98,402.049 218.504,403.006C218.715,403.492 218.909,403.978 219.068,404.462L219.156,404.946C219.254,405.488 219.33,405.964 219.41,406.495C219.459,406.82 219.582,407.664 219.614,407.78C220.221,409.95 221.859,410.391 222.782,410.469C223.919,411.307 225.109,411.29 226.262,410.824C226.759,410.623 227.889,410.099 228.427,408.488C228.477,408.397 228.524,408.301 228.57,408.202C229.094,407.059 229.268,405.478 229.024,403.677C229.122,402.545 229.188,401.632 229.188,401.515C229.188,400.766 229.174,400.044 229.144,399.344C230.006,399.457 230.69,399.226 231.191,398.98C232.08,398.542 232.787,397.827 233.114,396.673C233.814,394.2 233.59,391.292 232.827,388.36C231.934,384.929 230.306,381.443 229.545,378.963C228.929,376.953 228.332,374.935 227.75,372.911L227.735,372.649C227.72,372.457 227.706,372.265 227.691,372.073L227.638,371.504C228.153,370.783 228.482,369.592 228.491,367.779L228.492,367.748L228.492,366.754C228.492,365.941 228.446,365.285 228.27,364.488C227.939,362.983 227.764,361.434 227.238,359.982C226.808,358.795 226.482,357.573 226.102,356.365C226.032,356.146 225.966,355.927 225.903,355.706C226.748,352.8 227.368,349.844 227.995,347.54C229.28,342.815 230.161,338.086 230.61,333.237C230.625,333.081 230.755,331.641 230.652,330.42C230.573,329.485 230.34,328.639 230.05,328.06C229.319,326.594 228.141,325.903 226.87,325.735C225.984,325.618 224.75,325.69 223.396,326.858C222.945,327.247 222.525,327.717 222.142,328.26C222.055,327.154 221.975,326.043 221.901,324.931C221.549,319.607 221.651,314.294 221.651,308.959L221.651,300.662C221.694,300.176 221.775,299.181 221.756,299.06C221.406,296.864 219.887,296.234 218.864,296.02C218.07,295.853 216.96,295.812 215.783,296.763C215.596,296.914 215.199,297.228 214.82,297.932C213.52,300.346 212.97,303.883 212.932,307.679C212.912,309.668 213.019,311.736 213.151,313.689C213.029,313.67 212.907,313.658 212.783,313.652C211.974,313.608 210.979,313.756 209.98,314.66C209.312,315.263 208.716,316.061 208.213,317.005C207.83,317.054 207.487,317.156 207.215,317.26C206.599,317.495 205.066,318.088 204.846,320.388C204.672,322.212 204.761,324.019 205.005,325.81C204.959,327.424 204.914,329.051 205.066,330.625L205.101,330.975L204.985,331.675L204.844,332.559C203.926,331.762 202.937,331.59 202.084,331.652C201.279,331.71 200.436,331.994 199.668,332.753C198.473,333.933 198.587,337.615 198.587,337.615C198.587,337.615 198.572,337.443 198.572,337.364C198.572,340.487 198.919,342.973 199.533,346.051C200.261,349.699 201.022,353.317 201.849,356.909C201.831,357.068 201.823,357.235 201.823,357.411C201.823,357.608 201.84,357.821 201.875,358.046C201.903,358.522 201.955,359.36 201.983,359.684C202.121,361.253 202.144,362.908 202.144,364.48Z" style="fill:white;"/>
        <path d="M214.43,465.013L217.239,465.024C232.239,465.277 247.239,460.529 247.239,450.527L247.22,449.928L247.239,449.516C247.239,447.801 247.24,445.971 247.047,444.273C246.703,441.248 246.058,438.21 245.372,435.256C244.006,429.381 241.764,423.665 240.072,417.873C239.238,415.021 240.212,412.085 240.212,409.121C240.212,403.539 239.86,397.841 240.796,392.315C241.659,387.219 242.926,382.437 242.926,377.226C242.926,360.669 229.483,347.226 212.926,347.226C207.977,347.226 203.306,348.427 199.193,350.561C194.607,351.438 190.224,353.502 186.123,356.815C182.402,359.821 174.887,366.108 174.887,380.504C174.887,382.384 175.061,384.225 175.401,386.007C175.436,388.045 175.495,390.083 175.561,392.114C175.625,394.092 175.743,396.07 175.909,398.043C176.132,400.681 176.463,403.309 176.666,405.948C177.606,418.178 179.925,430.514 183.32,442.298C184.327,445.793 187.625,454.064 187.625,454.064C187.625,454.064 187.42,452.771 187.31,451.641C188.306,460.28 200.986,464.676 214.43,465.013Z" style="fill:white;"/>
        <path d="M154.065,431.946C156.842,442.34 160.054,452.606 163.595,462.547C165.707,468.477 173.498,486.013 174.554,488.384C174.878,494.512 176.561,497.439 176.8,498.014C180.363,506.585 185.914,510.443 189.685,512.585C196.01,516.178 202.474,517.138 208.943,516.17L210.082,515.976C210.617,515.984 211.148,515.975 211.675,515.955C219.044,515.677 228.766,513.282 235.965,502.017C237.148,500.167 238.794,497.204 239.922,492.877C240.785,489.57 241.957,478.254 241.957,467.394C241.957,457.999 241.424,449.532 240.299,441.04C240.713,439.901 241.091,438.681 241.417,437.386C242.805,431.87 243.329,422.442 243.329,420.926C243.329,408.585 238.409,397.353 238.409,384.987C238.409,354.232 232.54,306.931 223.032,278.408C222.388,276.476 221.566,274.653 220.588,272.952C217.019,265.002 210.081,258.891 201.596,256.432C200.651,253.94 200.012,251.413 200.012,248.798C200.012,233.546 191.829,227.793 190.132,226.254L189.999,226.138C184.19,218.775 177.058,215.994 170.658,215.058C162.642,213.887 150.787,214.226 141.159,227.915C136.855,234.034 133.386,242.798 131.628,253.079C129.248,267.003 129.805,284.899 129.805,294.674C129.805,343.488 135.008,370.855 149.151,417.592C150.617,422.436 152.282,427.212 154.065,431.946ZM234.407,483.581L234.411,483.921C234.468,484.733 234.493,485.515 234.493,486.264C234.493,485.342 234.465,484.448 234.407,483.581Z" style="fill:white;"/>
    </g>
</svg>
